<?xml version="1.0" standalone="no"?><!DOCTYPE svg PUBLIC "-//W3C//DTD SVG 1.1//EN" "http://www.w3.org/Graphics/SVG/1.1/DTD/svg11.dtd"><svg class="icon" width="200px" height="200.00px" viewBox="0 0 1024 1024" version="1.1" xmlns="http://www.w3.org/2000/svg"><path fill="#d81e06" d="M725.725 527.476c0 122.054-98.994 221.050-221.050 221.050-122.054 0-220.941-98.994-220.941-221.050 0-122.054 98.887-221.050 220.941-221.050 122.054 0 221.050 98.994 221.050 221.050zM504.721 121.757c-223.731 0-405.74 182.009-405.74 405.74s182.009 405.74 405.74 405.74c223.731 0 405.74-182.009 405.74-405.74 0-223.731-182.009-405.74-405.74-405.74M504.721 993.296c-98.243 0-189.516-30.567-264.807-82.8-85.909-59.525-150.903-147.259-181.579-249.793-12.656-42.257-19.412-86.981-19.412-133.206 0-78.403 19.412-152.3 53.733-217.187 34.428-64.887 83.658-120.767 143.184-163.025 75.935-53.948 168.816-85.589 268.884-85.589 83.013 0 161.095 21.772 228.665 60.062 85.482 48.37 154.337 123.019 195.309 212.897 26.919 58.775 41.828 124.094 41.828 192.839 0 91.595-26.599 177.183-72.503 249.363-42.686 67.141-102.107 122.591-172.247 160.558-65.853 35.609-141.145 55.879-221.050 55.879z" /></svg>