<?xml version="1.0" encoding="UTF-8"?>
<svg width="24px" height="24px" viewBox="0 0 24 24" version="1.1" xmlns="http://www.w3.org/2000/svg" xmlns:xlink="http://www.w3.org/1999/xlink">
    <title>Discord</title>
    <g id="Discord" stroke="none" stroke-width="1" fill="none" fill-rule="evenodd">
        <g>
            <rect id="矩形" fill="#D8D8D8" opacity="0" x="0" y="0" width="24" height="24"></rect>
            <path d="M7.96237621,11.3330025 C9.15049502,11.3330025 10.1128713,12.2240916 10.0910891,13.3132005 C10.0910891,14.4023094 9.15247523,15.2933985 7.96237621,15.2933985 C6.79405939,15.2933985 5.83168315,14.4023094 5.83168315,13.3132005 C5.83168315,12.2240916 6.77227723,11.3330025 7.96237621,11.3330025 Z M15.5821782,11.3330025 C16.7722772,11.3330025 17.7128713,12.2240916 17.7128713,13.3132005 C17.7128713,14.4023094 16.7722772,15.2933985 15.5821782,15.2933985 C14.4138614,15.2933985 13.4534653,14.4023094 13.4534653,13.3132005 C13.4534653,12.2240916 14.3920792,11.3330025 15.5821782,11.3330025 L15.5821782,11.3330025 Z M17.5564356,20.6656757 C22.0574257,20.5211213 23.790099,17.5052797 23.790099,17.5052797 C23.790099,10.8102302 20.8554455,5.38250743 20.8554455,5.38250743 C17.9247524,3.13894309 15.1326732,3.20016396 15.1326732,3.20016396 L14.8475247,3.53300246 C18.3108911,4.61419058 19.9188118,6.17458661 19.9188119,6.17458665 C18.0278576,5.10921631 15.9438417,4.43069949 13.7881188,4.17854705 C12.4206701,4.0240991 11.0394685,4.03739906 9.67524751,4.21815099 C9.55247525,4.21815099 9.44950494,4.23993316 9.32871284,4.25973515 C8.61584155,4.32310147 6.8831683,4.59240842 4.7049505,5.57062623 C3.95247526,5.92310149 3.50297028,6.17458661 3.50297028,6.17458665 C3.50297028,6.1745867 5.19405937,4.53102231 8.85940591,3.44983415 L8.65544554,3.20016396 C8.65544554,3.20016396 5.86534655,3.13894304 2.93267325,5.38448764 C2.93267325,5.38448764 0,10.8102302 0,17.5052797 C0,17.5052797 1.71089109,20.5191411 6.21188117,20.6656757 C6.21188117,20.6656757 6.9643564,19.7310223 7.57821781,18.9409233 C4.99009901,18.1488441 4.01386137,16.4854777 4.01386137,16.4854777 C4.01386137,16.4854777 4.21584157,16.6320124 4.58217819,16.8399332 C4.60198018,16.8597352 4.62178213,16.8815173 4.66336634,16.9013193 C4.72475249,16.9448837 4.7861386,16.9646856 4.84752475,17.0062698 C5.35643563,17.2973589 5.86534655,17.5250817 6.33267327,17.7132005 C7.16831682,18.0458738 8.16633662,18.378547 9.32871284,18.60825 C11.0699389,18.9495571 12.860221,18.9562773 14.6039604,18.628052 C15.6196385,18.4467699 16.6105609,18.1470341 17.5564356,17.7349827 C18.2693069,17.4636956 19.0633663,17.0676559 19.8990099,16.5072599 C19.8990099,16.5072599 18.8811881,18.2122104 16.2118812,18.9825074 C16.8237624,19.7726065 17.5584158,20.6656757 17.5584158,20.6656757 L17.5564356,20.6656757 Z" id="形状" fill="#1D1929" fill-rule="nonzero"></path>
        </g>
    </g>
</svg>