<?xml version="1.0" encoding="UTF-8"?>
<svg width="24px" height="24px" viewBox="0 0 24 24" version="1.1" xmlns="http://www.w3.org/2000/svg" xmlns:xlink="http://www.w3.org/1999/xlink">
    <title>medium</title>
    <g id="Medium" stroke="none" stroke-width="1" fill="none" fill-rule="evenodd">
        <g>
            <rect id="矩形" fill="#FF9600" opacity="0" x="0" y="0" width="24" height="24"></rect>
            <path d="M23.1984,18.2055967 L23.1984,20.8 L15.1728,20.8 L15.1728,18.2055967 L16.848,18.2055967 L16.848,6.7126918 L16.7728,6.7126918 L12.848,20.8 L9.81120001,20.8 L5.93600001,6.7126918 L5.83680002,6.7126918 L5.83680002,18.2055967 L7.52480001,18.2055967 L7.52480001,20.8 L0.8,20.8 L0.8,18.2055967 L1.6624,18.2055967 C1.83733334,18.2055967 2.01653334,18.1251008 2.2,17.964109 C2.38346666,17.8031173 2.47519999,17.6479509 2.47519999,17.4986099 L2.47519999,6.56335077 C2.47519999,6.41400974 2.38346666,6.24878136 2.2,6.06766564 C2.01653334,5.88654993 1.83733334,5.79546249 1.6624,5.79440333 L0.8,5.79440333 L0.8,3.2 L9.2,3.2 L11.9632,13.3901426 L12.0384,13.3901426 L14.8256,3.2 L23.2,3.2 L23.2,5.79440333 L22.312,5.79440333 C22.1541333,5.79440333 21.9834666,5.88549077 21.8,6.06766564 C21.6165333,6.24984052 21.5248,6.41506889 21.5248,6.56335077 L21.5248,17.4986099 C21.5248,17.6479509 21.6144,17.8031173 21.7936,17.964109 C21.9728,18.1251008 22.1456,18.2055967 22.312,18.2055967 L23.2,18.2055967 L23.1984,18.2055967 Z" id="路径" fill="#1D1929" fill-rule="nonzero"></path>
        </g>
    </g>
</svg>