<?xml version="1.0" encoding="UTF-8"?>
<svg width="24px" height="24px" viewBox="0 0 24 24" version="1.1" xmlns="http://www.w3.org/2000/svg" xmlns:xlink="http://www.w3.org/1999/xlink">
    <title>Twitter</title>
    <defs>
        <filter id="filter-1">
            <feColorMatrix in="SourceGraphic" type="matrix" values="0 0 0 0 0.113725 0 0 0 0 0.098039 0 0 0 0 0.160784 0 0 0 1.000000 0"></feColorMatrix>
        </filter>
    </defs>
    <g id="Twitter" stroke="none" stroke-width="1" fill="none" fill-rule="evenodd">
        <g>
            <rect id="矩形" fill="#D8D8D8" opacity="0" x="0" y="0" width="24" height="24"></rect>
            <g filter="url(#filter-1)" id="twitter">
                <g transform="translate(0.800000, 2.400000)">
                    <path d="M22.4,2.217425 C21.5636085,2.59805432 20.6737268,2.84798926 19.7614667,2.95849166 C20.7274993,2.36226715 21.4452209,1.43668804 21.7821333,0.352625 C20.8824845,0.900111534 19.8941924,1.28639512 18.8617333,1.49409166 C18.0033829,0.548057084 16.7856649,0.00816708027 15.5082667,0.00729165938 C12.9714667,0.00729165938 10.9144,2.116625 10.9144,4.71969166 C10.9144,5.08929166 10.9536,5.44769166 11.032,5.793025 C7.2128,5.59609166 3.82666666,3.721025 1.55866666,0.867825 C1.14970717,1.59090028 0.935517681,2.40777912 0.937066659,3.23849166 C0.937066659,4.87275832 1.74906666,6.31569166 2.98106666,7.16129166 C2.24987683,7.13693874 1.53557667,6.93514094 0.899733341,6.57329166 L0.899733341,6.63115834 C0.899733341,8.915025 2.4836,10.8199583 4.5864,11.2511583 C4.19292836,11.3627118 3.78577714,11.4186322 3.3768,11.4172917 C3.08093334,11.4172917 2.7916,11.3892917 2.5116,11.3332917 C3.09586666,13.2055583 4.79266666,14.568225 6.804,14.604625 C4.89400459,16.1500883 2.43893689,16.854952 5.75658039e-15,16.5580917 C2.09057141,17.9376683 4.54006048,18.6733587 7.0448,18.6739583 C15.4989333,18.6739583 20.1208,11.4947583 20.1208,5.266625 C20.1208,5.06129166 20.1161333,4.85689166 20.1086667,4.656225 C21.0065333,3.99169166 21.7858667,3.16289166 22.4,2.217425" id="路径" fill="#7D7D7D" fill-rule="nonzero"></path>
                </g>
            </g>
        </g>
    </g>
</svg>